<?xml version="1.0" encoding="iso-8859-1"?>
<!-- Generator: Adobe Illustrator 16.0.0, SVG Export Plug-In . SVG Version: 6.00 Build 0)  -->
<!DOCTYPE svg PUBLIC "-//W3C//DTD SVG 1.1//EN" "http://www.w3.org/Graphics/SVG/1.1/DTD/svg11.dtd">
<svg xmlns="http://www.w3.org/2000/svg" xmlns:xlink="http://www.w3.org/1999/xlink" version="1.1" id="Capa_1" x="0px" y="0px" width="512px" height="512px" viewBox="0 0 46 46" style="enable-background:new 0 0 46 46;" xml:space="preserve">
<g>
	<g>
		<path d="M36.485,22.586c1.494-1.576,3.506-6.261,1.928-7.755c-1.576-1.493-6.145,0.772-7.639,2.35    c-1.492,1.577-3.504,6.262-1.926,7.755C30.426,26.43,34.993,24.164,36.485,22.586z" fill="#FFFFFF"/>
		<path d="M17.414,10.592c1.578-1.493-0.434-6.178-1.926-7.755C13.995,1.26,9.427-1.005,7.851,0.488    C6.273,1.982,8.285,6.667,9.778,8.243C11.27,9.82,15.838,12.085,17.414,10.592z" fill="#FFFFFF"/>
		<path d="M34.868,33h-7.361v3c0,2.481-2.02,4.5-4.5,4.5c-2.481,0-4.5-2.019-4.5-4.5v-3h-7.375C5.264,33,0.507,37.757,0.507,43.625    C0.507,44.938,1.57,46,2.882,46h40.236c1.312,0,2.375-1.062,2.375-2.375C45.493,37.757,40.735,33,34.868,33z" fill="#FFFFFF"/>
		<path d="M23.007,37.5c0.828,0,1.5-0.671,1.5-1.5V2c0-0.829-0.672-1.5-1.5-1.5s-1.5,0.671-1.5,1.5v34    C21.507,36.829,22.179,37.5,23.007,37.5z" fill="#FFFFFF"/>
	</g>
</g>
<g>
</g>
<g>
</g>
<g>
</g>
<g>
</g>
<g>
</g>
<g>
</g>
<g>
</g>
<g>
</g>
<g>
</g>
<g>
</g>
<g>
</g>
<g>
</g>
<g>
</g>
<g>
</g>
<g>
</g>
</svg>
