<?xml version="1.0" encoding="iso-8859-1"?>
<!-- Generator: Adobe Illustrator 18.0.0, SVG Export Plug-In . SVG Version: 6.00 Build 0)  -->
<!DOCTYPE svg PUBLIC "-//W3C//DTD SVG 1.1//EN" "http://www.w3.org/Graphics/SVG/1.1/DTD/svg11.dtd">
<svg xmlns="http://www.w3.org/2000/svg" xmlns:xlink="http://www.w3.org/1999/xlink" version="1.1" id="Capa_1" x="0px" y="0px" viewBox="0 0 286.509 286.509" style="enable-background:new 0 0 286.509 286.509;" xml:space="preserve" width="512px" height="512px">
<g>
	<path d="M283.873,136.961l-67.587-67.587c-0.002-0.002-0.003-0.003-0.005-0.005s-0.003-0.003-0.005-0.005l-18.481-18.481   c-2.074-2.074-5.032-3.006-7.919-2.5c-2.89,0.507-5.351,2.391-6.595,5.048c-0.671,1.435-1.586,2.735-2.719,3.868   c-5.332,5.332-14.006,5.332-19.338,0c-5.331-5.331-5.331-14.006-0.001-19.336c1.134-1.133,2.436-2.048,3.87-2.719   c2.658-1.244,4.542-3.705,5.049-6.595c0.508-2.89-0.426-5.846-2.5-7.921L149.547,2.635c-3.515-3.514-9.213-3.514-12.728,0   l-66.73,66.73c-0.001,0.001-0.003,0.002-0.004,0.004s-0.002,0.003-0.004,0.004L58.762,80.693c-0.157-0.164-0.315-0.325-0.476-0.486   c-12.348-12.347-32.443-12.349-44.793,0c-12.35,12.35-12.35,32.444,0,44.794c0.16,0.16,0.322,0.318,0.486,0.476L2.636,136.818   c-3.515,3.515-3.515,9.214,0,12.729l77.438,77.438c-0.314,0.29-0.624,0.586-0.926,0.889c-5.982,5.982-9.277,13.937-9.277,22.396   s3.295,16.414,9.277,22.396c5.982,5.983,13.937,9.278,22.397,9.278s16.415-3.295,22.396-9.277c0.303-0.303,0.599-0.611,0.889-0.926   l12.133,12.133c1.688,1.688,3.977,2.636,6.364,2.636s4.676-0.948,6.364-2.636L283.873,149.69   C287.388,146.175,287.388,140.476,283.873,136.961z M143.183,21.727l4.429,4.43c-11.457,12.408-11.162,31.825,0.885,43.872   s31.463,12.342,43.872,0.885l4.82,4.82L181.553,91.37c-2.553,2.554-3.333,6.385-1.982,9.733c1.352,3.348,4.573,5.564,8.184,5.63   c3.476,0.063,6.74,1.447,9.192,3.898c2.52,2.52,3.907,5.869,3.907,9.433s-1.388,6.913-3.907,9.433   c-2.52,2.521-5.87,3.907-9.433,3.907s-6.913-1.387-9.434-3.907c-2.452-2.451-3.836-5.715-3.898-9.189   c-0.065-3.61-2.281-6.832-5.629-8.185c-3.349-1.351-7.181-0.571-9.733,1.981l-15.636,15.637L89.176,75.734L143.183,21.727z    M37.016,121.976c-0.675-3.009-2.844-5.462-5.748-6.502c-1.907-0.683-3.605-1.76-5.047-3.202c-5.331-5.331-5.331-14.006,0-19.337   c5.332-5.332,14.006-5.332,19.338,0c1.442,1.442,2.52,3.14,3.201,5.045c1.039,2.904,3.493,5.074,6.502,5.75   c3.01,0.678,6.155-0.236,8.336-2.417l12.851-12.851l54.007,54.007l-5.232,5.232c-5.592-4.605-12.545-7.11-19.883-7.11   c-8.372,0-16.242,3.26-22.161,9.179c-5.92,5.92-9.18,13.79-9.18,22.161c0,7.338,2.505,14.291,7.11,19.883l-5.376,5.376   l-54.006-54.007l12.87-12.87C36.779,128.131,37.692,124.986,37.016,121.976z M143.327,264.782l-13.859-13.859   c-1.708-1.707-4.005-2.636-6.364-2.636c-0.7,0-1.405,0.082-2.102,0.249c-3.045,0.731-5.491,2.993-6.458,5.973   c-0.67,2.063-1.79,3.891-3.33,5.431c-2.583,2.582-6.016,4.005-9.668,4.005c-3.652,0-7.086-1.423-9.669-4.006   c-2.583-2.582-4.005-6.016-4.005-9.668s1.422-7.086,4.006-9.669c1.539-1.539,3.366-2.659,5.429-3.329   c2.979-0.966,5.242-3.412,5.974-6.457c0.732-3.046-0.172-6.253-2.387-8.468l-12.43-12.43l12.201-12.201   c1.986-1.986,2.931-4.785,2.555-7.568c-0.375-2.782-2.028-5.23-4.47-6.619c-1.042-0.593-1.998-1.32-2.842-2.165   c-2.52-2.52-3.907-5.869-3.907-9.433s1.388-6.913,3.908-9.433c2.52-2.521,5.869-3.907,9.433-3.907c3.563,0,6.913,1.387,9.433,3.907   c0.842,0.843,1.571,1.8,2.166,2.845c1.389,2.439,3.837,4.092,6.62,4.467c2.784,0.38,5.581-0.57,7.566-2.555l12.058-12.058   l6.469,6.469c-0.929,0.739-1.82,1.535-2.669,2.384c-5.919,5.919-9.179,13.789-9.179,22.161c0,8.371,3.26,16.241,9.179,22.161   c12.22,12.219,32.102,12.218,44.322-0.001c0.849-0.849,1.644-1.739,2.384-2.669l4.358,4.359L143.327,264.782z M210.775,197.332   l-13.319-13.319c-2.359-2.358-5.83-3.22-9.018-2.235c-3.188,0.983-5.57,3.65-6.189,6.929c-0.498,2.633-1.768,5.032-3.672,6.937   c-5.202,5.2-13.665,5.202-18.866,0c-2.52-2.52-3.907-5.869-3.907-9.433s1.387-6.913,3.907-9.434   c1.904-1.904,4.303-3.174,6.936-3.671c3.278-0.619,5.945-3.002,6.929-6.189c0.984-3.188,0.124-6.659-2.236-9.019l-15.43-15.43   l5.32-5.32c1.182,1.813,2.56,3.515,4.122,5.077c5.919,5.919,13.79,9.179,22.161,9.179s16.241-3.26,22.161-9.179   s9.18-13.789,9.18-22.161c0-8.371-3.26-16.241-9.18-22.161c-1.562-1.562-3.264-2.939-5.077-4.121l5.32-5.32l54.864,54.864   L210.775,197.332z" fill="#FFFFFF"/>
</g>
<g>
</g>
<g>
</g>
<g>
</g>
<g>
</g>
<g>
</g>
<g>
</g>
<g>
</g>
<g>
</g>
<g>
</g>
<g>
</g>
<g>
</g>
<g>
</g>
<g>
</g>
<g>
</g>
<g>
</g>
</svg>
