<?xml version="1.0" encoding="iso-8859-1"?>
<!-- Generator: Adobe Illustrator 19.0.0, SVG Export Plug-In . SVG Version: 6.00 Build 0)  -->
<svg version="1.1" id="Layer_1" xmlns="http://www.w3.org/2000/svg" xmlns:xlink="http://www.w3.org/1999/xlink" x="0px" y="0px"
	 viewBox="0 0 512 512" style="enable-background:new 0 0 512 512;" xml:space="preserve">
<g>
	<polygon style="fill:#27AE60;" points="141.215,309.151 170.365,325.97 142.72,222.81 39.56,250.46 68.718,267.292 0,386.324 
		43.031,460.859 180.48,460.859 180.48,377.155 101.949,377.155 	"/>
	<polygon style="fill:#27AE60;" points="295.281,178.36 295.291,178.365 266.135,195.2 369.3,222.83 396.931,119.67 
		367.729,136.532 367.764,136.504 299.044,17.469 212.961,17.464 144.23,136.504 216.724,178.36 256,110.336 	"/>
	<polygon style="fill:#27AE60;" points="443.274,267.29 370.785,309.151 410.051,377.155 331.525,377.155 331.525,343.48 
		256,419.011 331.525,494.536 331.525,460.859 468.974,460.859 512,386.33 	"/>
</g>
<g>
</g>
<g>
</g>
<g>
</g>
<g>
</g>
<g>
</g>
<g>
</g>
<g>
</g>
<g>
</g>
<g>
</g>
<g>
</g>
<g>
</g>
<g>
</g>
<g>
</g>
<g>
</g>
<g>
</g>
</svg>
